<svg xmlns="http://www.w3.org/2000/svg" viewBox="0 0 1000 580" role="img" aria-labelledby="title desc">
  <title id="title">Spiral geometry and bench-dragon simulation workflow</title>
  <desc id="desc">
    The spiral is redrawn from the stated 0.55 metre pitch over 16 turns. It is ideal path geometry, not a snapshot of the simulated linked chain. The
    adjacent workflow summarizes arc-length integration, position propagation, collision checking and constraints.
  </desc>
  <defs>
    <marker id="arrow" markerWidth="7" markerHeight="7" refX="6" refY="3.5" orient="auto">
      <path d="M0,0 L7,3.5 L0,7" fill="none" stroke="#0f766e" stroke-width="1.2" />
    </marker>
  </defs>
  <rect width="1000" height="580" fill="#fff" />
  <g font-family="Arial, Helvetica, sans-serif">
    <text x="42" y="45" font-size="17" fill="#5a6677">LINKED-BODY KINEMATICS</text>
    <text x="42" y="87" font-size="29" fill="#122034">From a spiral to a feasible procession</text>
    <text x="42" y="133" font-size="22" fill="#122034">a Ideal path geometry</text>
    <text x="588" y="133" font-size="22" fill="#122034">b Modeling sequence</text>
    <line x1="65" y1="337" x2="510" y2="337" stroke="#dce3ea" stroke-width="1" />
    <line x1="283" y1="162" x2="283" y2="512" stroke="#dce3ea" stroke-width="1" />
    <path
      d="M283.00,337.00 L283.10,336.99 L283.20,336.98 L283.29,336.95 L283.39,336.91 L283.48,336.85 L283.56,336.79 L283.64,336.72 L283.71,336.63 L283.77,336.54 L283.82,336.44 L283.87,336.33 L283.90,336.21 L283.92,336.09 L283.93,335.96 L283.93,335.83 L283.92,335.69 L283.89,335.55 L283.85,335.42 L283.79,335.28 L283.72,335.14 L283.64,335.00 L283.54,334.87 L283.44,334.75 L283.31,334.63 L283.18,334.51 L283.03,334.41 L282.87,334.31 L282.70,334.22 L282.51,334.15 L282.32,334.08 L282.12,334.03 L281.91,334.00 L281.69,333.98 L281.47,333.97 L281.24,333.99 L281.00,334.01 L280.77,334.06 L280.53,334.12 L280.29,334.20 L280.06,334.30 L279.82,334.42 L279.59,334.56 L279.37,334.71 L279.15,334.89 L278.94,335.08 L278.74,335.29 L278.55,335.52 L278.37,335.76 L278.21,336.02 L278.06,336.30 L277.93,336.59 L277.81,336.89 L277.72,337.20 L277.64,337.53 L277.58,337.87 L277.54,338.21 L277.53,338.56 L277.54,338.92 L277.57,339.28 L277.63,339.65 L277.71,340.02 L277.82,340.38 L277.95,340.75 L278.11,341.11 L278.29,341.46 L278.50,341.81 L278.73,342.15 L278.99,342.47 L279.27,342.79 L279.58,343.09 L279.90,343.37 L280.25,343.64 L280.62,343.89 L281.01,344.11 L281.42,344.32 L281.85,344.50 L282.29,344.65 L282.75,344.78 L283.22,344.88 L283.70,344.95 L284.19,345.00 L284.69,345.01 L285.19,344.99 L285.70,344.94 L286.21,344.85 L286.71,344.74 L287.22,344.59 L287.72,344.40 L288.22,344.19 L288.70,343.94 L289.17,343.66 L289.63,343.35 L290.08,343.00 L290.51,342.63 L290.91,342.22 L291.30,341.79 L291.66,341.32 L292.00,340.84 L292.30,340.32 L292.58,339.79 L292.83,339.23 L293.04,338.65 L293.22,338.06 L293.37,337.45 L293.48,336.82 L293.55,336.19 L293.58,335.54 L293.57,334.89 L293.52,334.24 L293.43,333.58 L293.30,332.92 L293.13,332.27 L292.91,331.63 L292.66,330.99 L292.36,330.36 L292.02,329.75 L291.65,329.15 L291.23,328.58 L290.78,328.03 L290.28,327.50 L289.76,326.99 L289.20,326.52 L288.60,326.08 L287.98,325.67 L287.32,325.30 L286.64,324.97 L285.94,324.67 L285.21,324.42 L284.46,324.21 L283.70,324.05 L282.92,323.93 L282.13,323.86 L281.33,323.83 L280.53,323.86 L279.72,323.93 L278.91,324.06 L278.11,324.23 L277.31,324.46 L276.52,324.74 L275.75,325.06 L274.99,325.44 L274.24,325.86 L273.53,326.33 L272.83,326.85 L272.17,327.41 L271.53,328.01 L270.93,328.66 L270.37,329.35 L269.84,330.07 L269.36,330.83 L268.92,331.62 L268.53,332.45 L268.19,333.30 L267.89,334.18 L267.65,335.08 L267.47,335.99 L267.33,336.93 L267.26,337.87 L267.24,338.82 L267.28,339.78 L267.38,340.74 L267.53,341.70 L267.75,342.66 L268.03,343.60 L268.36,344.53 L268.75,345.45 L269.20,346.34 L269.71,347.22 L270.27,348.06 L270.88,348.87 L271.55,349.65 L272.27,350.39 L273.03,351.09 L273.84,351.75 L274.70,352.36 L275.59,352.92 L276.52,353.43 L277.49,353.89 L278.48,354.28 L279.51,354.62 L280.56,354.90 L281.63,355.11 L282.72,355.26 L283.82,355.34 L284.92,355.36 L286.04,355.31 L287.15,355.19 L288.26,355.01 L289.37,354.75 L290.46,354.43 L291.54,354.04 L292.59,353.58 L293.63,353.06 L294.63,352.48 L295.60,351.83 L296.54,351.12 L297.43,350.35 L298.28,349.52 L299.09,348.64 L299.84,347.71 L300.54,346.73 L301.18,345.70 L301.76,344.63 L302.28,343.53 L302.74,342.38 L303.12,341.21 L303.44,340.01 L303.68,338.79 L303.85,337.55 L303.94,336.30 L303.96,335.03 L303.91,333.76 L303.77,332.49 L303.56,331.23 L303.27,329.97 L302.91,328.73 L302.46,327.51 L301.95,326.31 L301.36,325.14 L300.69,324.00 L299.96,322.90 L299.15,321.84 L298.28,320.83 L297.35,319.86 L296.36,318.95 L295.31,318.10 L294.20,317.31 L293.04,316.58 L291.84,315.93 L290.59,315.34 L289.31,314.83 L287.99,314.39 L286.64,314.04 L285.27,313.76 L283.87,313.57 L282.46,313.46 L281.04,313.43 L279.62,313.49 L278.20,313.64 L276.78,313.87 L275.37,314.19 L273.98,314.60 L272.61,315.09 L271.27,315.67 L269.95,316.32 L268.68,317.06 L267.45,317.88 L266.26,318.77 L265.13,319.74 L264.05,320.78 L263.03,321.88 L262.08,323.05 L261.19,324.28 L260.38,325.57 L259.64,326.90 L258.98,328.29 L258.41,329.72 L257.92,331.18 L257.52,332.68 L257.21,334.20 L256.98,335.75 L256.86,337.31 L256.82,338.89 L256.88,340.47 L257.04,342.05 L257.29,343.62 L257.64,345.18 L258.09,346.72 L258.62,348.24 L259.25,349.73 L259.97,351.18 L260.78,352.59 L261.68,353.96 L262.66,355.28 L263.72,356.53 L264.86,357.73 L266.08,358.86 L267.36,359.92 L268.72,360.90 L270.13,361.80 L271.60,362.62 L273.12,363.35 L274.69,363.99 L276.30,364.54 L277.94,364.99 L279.62,365.34 L281.32,365.59 L283.04,365.74 L284.77,365.79 L286.50,365.73 L288.23,365.56 L289.96,365.29 L291.68,364.92 L293.37,364.44 L295.04,363.86 L296.67,363.18 L298.27,362.40 L299.82,361.52 L301.32,360.55 L302.77,359.48 L304.15,358.33 L305.47,357.09 L306.71,355.77 L307.87,354.37 L308.95,352.90 L309.95,351.36 L310.85,349.76 L311.66,348.10 L312.37,346.39 L312.98,344.64 L313.48,342.85 L313.87,341.02 L314.16,339.17 L314.33,337.30 L314.39,335.42 L314.34,333.52 L314.18,331.63 L313.89,329.75 L313.50,327.88 L312.99,326.04 L312.37,324.22 L311.64,322.43 L310.80,320.69 L309.86,319.00 L308.81,317.36 L307.66,315.78 L306.42,314.27 L305.08,312.84 L303.65,311.48 L302.14,310.21 L300.56,309.02 L298.89,307.93 L297.16,306.94 L295.37,306.05 L293.53,305.27 L291.63,304.60 L289.69,304.04 L287.72,303.60 L285.72,303.28 L283.69,303.08 L281.65,303.00 L279.60,303.04 L277.56,303.21 L275.52,303.50 L273.50,303.91 L271.50,304.45 L269.53,305.10 L267.59,305.88 L265.71,306.77 L263.87,307.78 L262.09,308.90 L260.38,310.13 L258.74,311.46 L257.18,312.89 L255.70,314.42 L254.32,316.04 L253.03,317.74 L251.84,319.52 L250.76,321.38 L249.79,323.30 L248.93,325.29 L248.20,327.32 L247.58,329.41 L247.09,331.53 L246.73,333.68 L246.49,335.86 L246.39,338.06 L246.42,340.26 L246.58,342.46 L246.88,344.66 L247.31,346.83 L247.87,348.99 L248.56,351.11 L249.38,353.19 L250.32,355.23 L251.39,357.21 L252.58,359.13 L253.88,360.98 L255.30,362.75 L256.82,364.44 L258.45,366.03 L260.18,367.53 L261.99,368.93 L263.90,370.22 L265.88,371.39 L267.93,372.45 L270.05,373.38 L272.23,374.19 L274.46,374.87 L276.72,375.41 L279.03,375.82 L281.36,376.08 L283.71,376.21 L286.07,376.20 L288.42,376.04 L290.78,375.74 L293.11,375.30 L295.42,374.72 L297.70,374.00 L299.93,373.15 L302.12,372.15 L304.24,371.03 L306.30,369.78 L308.29,368.40 L310.19,366.90 L312.01,365.28 L313.73,363.56 L315.34,361.73 L316.85,359.80 L318.24,357.78 L319.52,355.67 L320.66,353.49 L321.68,351.24 L322.56,348.92 L323.30,346.55 L323.89,344.14 L324.35,341.68 L324.65,339.20 L324.81,336.70 L324.82,334.18 L324.67,331.67 L324.38,329.16 L323.93,326.67 L323.33,324.20 L322.58,321.77 L321.69,319.38 L320.65,317.05 L319.47,314.78 L318.16,312.57 L316.71,310.45 L315.13,308.41 L313.43,306.46 L311.61,304.62 L309.67,302.88 L307.64,301.26 L305.50,299.76 L303.27,298.39 L300.96,297.15 L298.58,296.06 L296.12,295.10 L293.61,294.29 L291.05,293.63 L288.45,293.13 L285.81,292.78 L283.16,292.59 L280.49,292.56 L277.82,292.70 L275.15,292.99 L272.50,293.44 L269.88,294.05 L267.29,294.82 L264.75,295.75 L262.27,296.83 L259.84,298.06 L257.50,299.44 L255.23,300.95 L253.05,302.61 L250.97,304.39 L249.00,306.31 L247.14,308.34 L245.41,310.48 L243.80,312.73 L242.33,315.08 L241.00,317.52 L239.81,320.03 L238.78,322.62 L237.90,325.27 L237.18,327.98 L236.62,330.73 L236.23,333.52 L236.00,336.33 L235.95,339.15 L236.06,341.98 L236.35,344.80 L236.80,347.61 L237.42,350.39 L238.22,353.13 L239.17,355.82 L240.29,358.46 L241.57,361.04 L243.00,363.53 L244.58,365.94 L246.31,368.26 L248.18,370.47 L250.18,372.57 L252.31,374.55 L254.56,376.41 L256.92,378.13 L259.39,379.70 L261.95,381.13 L264.59,382.41 L267.32,383.52 L270.11,384.48 L272.96,385.26 L275.86,385.88 L278.79,386.32 L281.75,386.58 L284.73,386.67 L287.72,386.57 L290.70,386.30 L293.66,385.85 L296.60,385.21 L299.50,384.41 L302.35,383.42 L305.14,382.27 L307.86,380.95 L310.51,379.46 L313.06,377.82 L315.52,376.02 L317.87,374.07 L320.10,371.98 L322.21,369.76 L324.19,367.40 L326.02,364.93 L327.70,362.35 L329.23,359.67 L330.60,356.90 L331.80,354.04 L332.83,351.11 L333.69,348.12 L334.36,345.07 L334.85,341.99 L335.16,338.87 L335.27,335.74 L335.20,332.60 L334.95,329.46 L334.50,326.34 L333.86,323.25 L333.04,320.19 L332.04,317.18 L330.85,314.23 L329.49,311.36 L327.95,308.56 L326.24,305.86 L324.38,303.26 L322.35,300.77 L320.18,298.41 L317.86,296.17 L315.41,294.07 L312.83,292.13 L310.14,290.33 L307.34,288.70 L304.44,287.23 L301.45,285.94 L298.38,284.83 L295.25,283.91 L292.06,283.17 L288.83,282.63 L285.56,282.27 L282.27,282.12 L278.97,282.16 L275.68,282.40 L272.40,282.84 L269.15,283.48 L265.93,284.31 L262.77,285.34 L259.66,286.55 L256.63,287.96 L253.69,289.54 L250.84,291.30 L248.09,293.23 L245.46,295.33 L242.96,297.59 L240.60,299.99 L238.37,302.54 L236.31,305.22 L234.40,308.03 L232.66,310.95 L231.10,313.98 L229.72,317.09 L228.52,320.30 L227.52,323.57 L226.72,326.90 L226.12,330.28 L225.72,333.70 L225.52,337.14 L225.53,340.60 L225.75,344.05 L226.18,347.49 L226.81,350.90 L227.65,354.27 L228.70,357.59 L229.94,360.85 L231.38,364.04 L233.00,367.14 L234.82,370.14 L236.81,373.03 L238.98,375.80 L241.32,378.44 L243.81,380.94 L246.45,383.29 L249.24,385.48 L252.15,387.50 L255.19,389.35 L258.34,391.01 L261.59,392.49 L264.92,393.77 L268.33,394.84 L271.81,395.72 L275.34,396.38 L278.91,396.83 L282.50,397.07 L286.11,397.09 L289.72,396.90 L293.31,396.49 L296.89,395.86 L300.42,395.01 L303.90,393.96 L307.32,392.69 L310.66,391.23 L313.91,389.55 L317.06,387.69 L320.10,385.64 L323.02,383.40 L325.80,380.99 L328.43,378.41 L330.91,375.67 L333.22,372.79 L335.36,369.76 L337.32,366.61 L339.09,363.35 L340.66,359.97 L342.03,356.50 L343.19,352.95 L344.14,349.34 L344.87,345.66 L345.37,341.94 L345.66,338.20 L345.72,334.43 L345.55,330.67 L345.15,326.91 L344.54,323.18 L343.69,319.49 L342.63,315.85 L341.34,312.27 L339.84,308.77 L338.14,305.37 L336.22,302.06 L334.11,298.87 L331.81,295.81 L329.33,292.89 L326.67,290.12 L323.84,287.51 L320.86,285.07 L317.73,282.81 L314.46,280.74 L311.08,278.86 L307.58,277.19 L303.98,275.73 L300.30,274.48 L296.54,273.46 L292.72,272.67 L288.85,272.10 L284.95,271.77 L281.03,271.67 L277.11,271.80 L273.20,272.17 L269.31,272.78 L265.45,273.62 L261.65,274.69 L257.92,275.99 L254.26,277.52 L250.70,279.26 L247.24,281.22 L243.90,283.38 L240.69,285.75 L237.63,288.30 L234.71,291.04 L231.97,293.96 L229.40,297.03 L227.02,300.27 L224.83,303.64 L222.84,307.14 L221.07,310.76 L219.51,314.49 L218.18,318.31 L217.08,322.21 L216.21,326.17 L215.59,330.19 L215.20,334.24 L215.06,338.31 L215.16,342.39 L215.50,346.46 L216.09,350.51 L216.93,354.53 L218.00,358.49 L219.32,362.38 L220.86,366.20 L222.64,369.92 L224.64,373.53 L226.85,377.03 L229.27,380.38 L231.90,383.59 L234.72,386.65 L237.71,389.53 L240.88,392.23 L244.22,394.74 L247.70,397.04 L251.32,399.14 L255.06,401.02 L258.91,402.68 L262.87,404.10 L266.90,405.28 L271.01,406.22 L275.17,406.92 L279.37,407.36 L283.60,407.55 L287.84,407.49 L292.07,407.17 L296.28,406.60 L300.45,405.77 L304.57,404.70 L308.63,403.37 L312.60,401.81 L316.48,400.00 L320.25,397.97 L323.90,395.71 L327.41,393.23 L330.77,390.54 L333.96,387.65 L336.98,384.57 L339.82,381.30 L342.45,377.87 L344.88,374.29 L347.10,370.56 L349.08,366.69 L350.84,362.71 L352.35,358.63 L353.62,354.45 L354.64,350.21 L355.40,345.90 L355.90,341.55 L356.15,337.17 L356.12,332.78 L355.84,328.39 L355.29,324.02 L354.48,319.68 L353.41,315.40 L352.08,311.18 L350.50,307.04 L348.67,303.00 L346.60,299.08 L344.29,295.28 L341.76,291.61 L339.00,288.11 L336.04,284.77 L332.88,281.61 L329.53,278.64 L326.01,275.87 L322.32,273.32 L318.47,270.99 L314.49,268.89 L310.39,267.03 L306.17,265.42 L301.87,264.06 L297.48,262.96 L293.02,262.13 L288.52,261.56 L283.99,261.27 L279.44,261.24 L274.90,261.49 L270.37,262.02 L265.87,262.81 L261.43,263.88 L257.05,265.21 L252.75,266.80 L248.55,268.65 L244.46,270.76 L240.50,273.10 L236.69,275.69 L233.03,278.50 L229.54,281.53 L226.24,284.77 L223.13,288.20 L220.23,291.82 L217.55,295.61 L215.10,299.56 L212.89,303.66 L210.92,307.89 L209.21,312.23 L207.76,316.67 L206.58,321.20 L205.67,325.80 L205.04,330.44 L204.69,335.13 L204.62,339.83 L204.83,344.54 L205.32,349.23 L206.10,353.88 L207.15,358.49 L208.48,363.03 L210.09,367.49 L211.96,371.86 L214.09,376.10 L216.47,380.22 L219.10,384.19 L221.97,388.00 L225.07,391.64 L228.38,395.08 L231.90,398.33 L235.61,401.37 L239.50,404.18 L243.55,406.75 L247.76,409.08 L252.11,411.16 L256.58,412.97 L261.16,414.51 L265.82,415.78 L270.56,416.77 L275.36,417.47 L280.19,417.88 L285.05,418.00 L289.91,417.83 L294.76,417.37 L299.58,416.62 L304.35,415.58 L309.06,414.25 L313.68,412.64 L318.20,410.76 L322.61,408.60 L326.89,406.18 L331.01,403.51 L334.98,400.58 L338.77,397.43 L342.36,394.04 L345.75,390.45 L348.92,386.65 L351.86,382.66 L354.56,378.50 L357.01,374.18 L359.20,369.71 L361.12,365.12 L362.76,360.41 L364.12,355.61 L365.19,350.73 L365.96,345.78 L366.44,340.80 L366.62,335.79 L366.49,330.77 L366.07,325.76 L365.34,320.78 L364.32,315.84 L363.00,310.98 L361.38,306.19 L359.49,301.50 L357.31,296.93 L354.86,292.50 L352.14,288.21 L349.17,284.09 L345.95,280.15 L342.50,276.41 L338.82,272.87 L334.94,269.56 L330.86,266.49 L326.59,263.66 L322.16,261.09 L317.58,258.78 L312.86,256.76 L308.03,255.02 L303.09,253.56 L298.07,252.41 L292.98,251.56 L287.84,251.02 L282.68,250.78 L277.50,250.86 L272.34,251.24 L267.19,251.94 L262.10,252.94 L257.07,254.25 L252.11,255.86 L247.26,257.77 L242.53,259.97 L237.93,262.45 L233.49,265.20 L229.21,268.22 L225.11,271.49 L221.22,275.01 L217.54,278.76 L214.09,282.73 L210.88,286.90 L207.92,291.27 L205.22,295.81 L202.80,300.50 L200.66,305.34 L198.82,310.31 L197.27,315.38 L196.03,320.54 L195.10,325.77 L194.49,331.05 L194.19,336.37 L194.21,341.70 L194.55,347.03 L195.22,352.33 L196.20,357.59 L197.49,362.79 L199.10,367.90 L201.01,372.92 L203.22,377.82 L205.73,382.58 L208.52,387.19 L211.58,391.62 L214.91,395.87 L218.49,399.92 L222.31,403.75 L226.36,407.34 L230.63,410.69 L235.09,413.79 L239.73,416.61 L244.54,419.15 L249.50,421.40 L254.59,423.35 L259.79,425.00 L265.09,426.33 L270.46,427.34 L275.90,428.03 L281.37,428.39 L286.85,428.43 L292.34,428.13 L297.80,427.50 L303.23,426.55 L308.59,425.27 L313.87,423.67 L319.05,421.76 L324.11,419.53 L329.04,417.01 L333.80,414.19 L338.40,411.08 L342.81,407.70 L347.01,404.06 L350.99,400.17 L354.73,396.04 L358.22,391.69 L361.45,387.14 L364.40,382.39 L367.07,377.47 L369.44,372.40 L371.50,367.18 L373.25,361.85 L374.67,356.41 L375.77,350.89 L376.53,345.32 L376.96,339.69 L377.06,334.05 L376.81,328.41 L376.22,322.78 L375.30,317.20 L374.04,311.67 L372.46,306.23 L370.54,300.88 L368.31,295.65 L365.76,290.56 L362.91,285.63 L359.77,280.87 L356.34,276.30 L352.64,271.95 L348.69,267.82 L344.48,263.93 L340.05,260.29 L335.40,256.92 L330.56,253.84 L325.53,251.05 L320.34,248.56 L315.00,246.39 L309.54,244.53 L303.96,243.01 L298.31,241.83 L292.58,240.98 L286.81,240.48 L281.01,240.32 L275.21,240.52 L269.43,241.06 L263.68,241.95 L257.99,243.18 L252.38,244.75 L246.86,246.66 L241.47,248.90 L236.21,251.47 L231.11,254.34 L226.19,257.52 L221.47,260.99 L216.95,264.74 L212.67,268.76 L208.63,273.04 L204.85,277.55 L201.34,282.29 L198.12,287.24 L195.20,292.37 L192.59,297.68 L190.30,303.13 L188.34,308.73 L186.72,314.43 L185.44,320.23 L184.51,326.10 L183.93,332.02 L183.71,337.97 L183.85,343.93 L184.35,349.87 L185.20,355.78 L186.40,361.64 L187.96,367.42 L189.86,373.10 L192.10,378.66 L194.68,384.08 L197.57,389.35 L200.78,394.43 L204.30,399.32 L208.10,403.99 L212.18,408.43 L216.53,412.63 L221.12,416.56 L225.95,420.21 L230.99,423.56 L236.23,426.61 L241.64,429.35 L247.22,431.76 L252.94,433.83 L258.77,435.55 L264.71,436.93 L270.72,437.94 L276.79,438.60 L282.89,438.89 L289.01,438.81 L295.11,438.36 L301.19,437.55 L307.21,436.38 L313.15,434.84 L319.00,432.95 L324.73,430.71 L330.32,428.13 L335.75,425.21 L341.00,421.97 L346.05,418.42 L350.89,414.57 L355.49,410.43 L359.84,406.02 L363.91,401.35 L367.71,396.44 L371.21,391.30 L374.39,385.96 L377.25,380.44 L379.78,374.74 L381.97,368.90 L383.80,362.94 L385.27,356.87 L386.38,350.71 L387.11,344.49 L387.47,338.24 L387.46,331.97 L387.07,325.70 L386.30,319.46 L385.16,313.28 L383.65,307.17 L381.77,301.15 L379.54,295.25 L376.95,289.49 L374.02,283.90 L370.75,278.48 L367.17,273.26 L363.27,268.26 L359.08,263.51 L354.60,259.00 L349.86,254.77 L344.86,250.83 L339.64,247.19 L334.20,243.87 L328.56,240.88 L322.76,238.22 L316.79,235.92 L310.70,233.98 L304.49,232.41 L298.19,231.21 L291.83,230.39 L285.42,229.95 L279.00,229.90 L272.57,230.23 L266.17,230.95 L259.82,232.05 L253.55,233.54 L247.36,235.40 L241.29,237.62 L235.37,240.21 L229.60,243.16 L224.01,246.44 L218.63,250.06 L213.47,254.00 L208.55,258.25 L203.89,262.79 L199.50,267.60 L195.41,272.67 L191.63,277.99 L188.17,283.52 L185.04,289.26 L182.26,295.19 L179.84,301.27 L177.79,307.49 L176.11,313.83 L174.82,320.27 L173.91,326.78 L173.39,333.33 L173.27,339.91 L173.54,346.50 L174.21,353.06 L175.27,359.57 L176.72,366.02 L178.56,372.37 L180.78,378.61 L183.36,384.71 L186.32,390.64 L189.62,396.40 L193.27,401.95 L197.25,407.28 L201.55,412.36 L206.14,417.18 L211.02,421.72 L216.17,425.96 L221.57,429.89 L227.21,433.50 L233.05,436.76 L239.08,439.67 L245.28,442.21 L251.63,444.38 L258.10,446.16 L264.68,447.56 L271.33,448.56 L278.03,449.15 L284.77,449.35 L291.51,449.14 L298.23,448.53 L304.91,447.51 L311.53,446.09 L318.05,444.28 L324.45,442.08 L330.72,439.50 L336.83,436.54 L342.76,433.22 L348.48,429.54 L353.97,425.53 L359.22,421.19 L364.20,416.53 L368.90,411.59 L373.29,406.36 L377.37,400.88 L381.12,395.16 L384.52,389.21 L387.56,383.07 L390.23,376.75 L392.51,370.28 L394.41,363.68 L395.91,356.97 L397.00,350.17 L397.68,343.32 L397.96,336.43 L397.82,329.53 L397.26,322.65 L396.29,315.80 L394.91,309.02 L393.13,302.33 L390.95,295.76 L388.37,289.32 L385.41,283.04 L382.07,276.94 L378.38,271.05 L374.33,265.39 L369.95,259.98 L365.24,254.83 L360.23,249.97 L354.94,245.42 L349.37,241.19 L343.56,237.30 L337.52,233.76 L331.27,230.58 L324.84,227.79 L318.24,225.38 L311.51,223.37 L304.66,221.77 L297.73,220.57 L290.73,219.80 L283.69,219.45 L276.63,219.52 L269.59,220.01 L262.58,220.93 L255.63,222.27 L248.77,224.02 L242.02,226.18 L235.41,228.75 L228.96,231.71 L222.69,235.05 L216.63,238.77 L210.80,242.84 L205.22,247.27 L199.91,252.02 L194.89,257.09 L190.18,262.45 L185.79,268.10 L181.75,274.00 L178.07,280.13 L174.76,286.49 L171.83,293.03 L169.30,299.75 L167.17,306.61 L165.46,313.59 L164.17,320.66 L163.30,327.81 L162.87,335.00 L162.87,342.21 L163.30,349.42 L164.16,356.59 L165.45,363.70 L167.17,370.73 L169.30,377.65 L171.85,384.43 L174.81,391.06 L178.16,397.50 L181.89,403.73 L185.99,409.73 L190.45,415.48 L195.25,420.96 L200.38,426.15 L205.81,431.02 L211.53,435.56 L217.51,439.75 L223.74,443.58 L230.20,447.03 L236.85,450.09 L243.69,452.75 L250.67,454.99 L257.78,456.82 L265.00,458.21 L272.29,459.17 L279.63,459.70 L287.00,459.78 L294.36,459.42 L301.70,458.61 L308.98,457.37 L316.18,455.69 L323.27,453.58 L330.22,451.05 L337.02,448.10 L343.64,444.75 L350.04,441.00 L356.22,436.88 L362.14,432.38 L367.78,427.54 L373.13,422.36 L378.17,416.87 L382.86,411.08 L387.21,405.01 L391.19,398.69 L394.78,392.13 L397.98,385.37 L400.76,378.42 L403.13,371.31 L405.07,364.07 L406.57,356.72 L407.63,349.28 L408.24,341.79 L408.41,334.27 L408.12,326.75 L407.38,319.25 L406.18,311.80 L404.55,304.43 L402.47,297.17 L399.96,290.04 L397.03,283.07 L393.67,276.28 L389.92,269.70 L385.77,263.35 L381.25,257.26 L376.36,251.45 L371.13,245.93 L365.58,240.73 L359.72,235.88 L353.57,231.37 L347.16,227.25 L340.51,223.51 L333.64,220.17 L326.58,217.25 L319.35,214.76 L311.98,212.70 L304.49,211.09 L296.91,209.93 L289.27,209.22 L281.59,208.98 L273.91,209.19 L266.25,209.87 L258.64,211.00 L251.10,212.59 L243.67,214.64 L236.37,217.12 L229.22,220.04 L222.26,223.39 L215.50,227.15 L208.98,231.31 L202.71,235.86 L196.73,240.79 L191.04,246.06 L185.68,251.68 L180.66,257.60 L176.00,263.83 L171.72,270.32 L167.83,277.07 L164.36,284.04 L161.30,291.22 L158.68,298.57 L156.50,306.07 L154.78,313.69 L153.51,321.41 L152.71,329.20 L152.37,337.02 L152.51,344.86 L153.12,352.69 L154.19,360.46 L155.74,368.17 L157.74,375.77 L160.20,383.25 L163.10,390.57 L166.44,397.71 L170.20,404.64 L174.38,411.34 L178.95,417.78 L183.91,423.94 L189.23,429.80 L194.90,435.33 L200.89,440.51 L207.19,445.33 L213.77,449.77 L220.61,453.80 L227.68,457.42 L234.97,460.62 L242.43,463.37 L250.06,465.67 L257.82,467.51 L265.68,468.89 L273.61,469.79 L281.59,470.21 L289.58,470.16 L297.57,469.62 L305.51,468.61 L313.38,467.12 L321.16,465.16 L328.81,462.73 L336.31,459.85 L343.62,456.52 L350.73,452.76 L357.61,448.57 L364.22,443.98 L370.56,438.99 L376.58,433.63 L382.28,427.91 L387.63,421.86 L392.61,415.49 L397.21,408.83 L401.40,401.90 L405.17,394.72 L408.50,387.33 L411.39,379.75 L413.81,372.00 L415.78,364.11 L417.26,356.11 L418.27,348.04 L418.78,339.91 L418.81,331.76 L418.35,323.61 L417.41,315.50 L415.97,307.46 L414.06,299.51 L411.67,291.69 L408.81,284.02 L405.50,276.52 L401.74,269.24 L397.54,262.18 L392.93,255.39 L387.92,248.88 L382.52,242.68 L376.75,236.81 L370.64,231.29 L364.20,226.15 L357.46,221.39 L350.44,217.05 L343.17,213.13 L335.67,209.65 L327.98,206.63 L320.10,204.07 L312.09,201.99 L303.96,200.39 L295.73,199.28 L287.46,198.66 L279.15,198.54 L270.85,198.93 L262.57,199.80 L254.36,201.18 L246.24,203.04 L238.25,205.39 L230.40,208.22 L222.73,211.52 L215.26,215.27 L208.03,219.47 L201.06,224.09 L194.37,229.13 L188.00,234.57 L181.95,240.38 L176.27,246.55 L170.95,253.05 L166.04,259.87 L161.54,266.97 L157.47,274.33 L153.84,281.94 L150.68,289.75 L147.99,297.74 L145.78,305.88 L144.06,314.15 L142.84,322.51 L142.13,330.94 L141.92,339.40 L142.22,347.86 L143.02,356.30 L144.33,364.68 L146.14,372.97 L148.45,381.14 L151.25,389.16 L154.52,397.01 L158.27,404.66 L162.46,412.07 L167.10,419.22 L172.16,426.08 L177.63,432.64 L183.48,438.85 L189.70,444.71 L196.27,450.19 L203.16,455.27 L210.34,459.93 L217.80,464.16 L225.50,467.93 L233.42,471.24 L241.53,474.06 L249.80,476.40 L258.20,478.24 L266.71,479.57 L275.28,480.39 L283.89,480.70 L292.51,480.48 L301.11,479.75 L309.66,478.51 L318.12,476.75 L326.47,474.49 L334.67,471.73 L342.70,468.48 L350.52,464.75 L358.11,460.56 L365.44,455.91 L372.48,450.83 L379.22,445.34 L385.61,439.44 L391.64,433.17 L397.29,426.55 L402.54,419.59 L407.36,412.32 L411.74,404.78 L415.67,396.98 L419.12,388.95 L422.08,380.72 L424.55,372.33 L426.51,363.80 L427.96,355.16 L428.89,346.44 L429.29,337.67 L429.17,328.89 L428.52,320.13 L427.34,311.42 L425.65,302.79 L423.43,294.26 L420.71,285.89 L417.49,277.68 L413.78,269.68 L409.59,261.90 L404.94,254.39 L399.85,247.17 L394.33,240.26 L388.40,233.69 L382.08,227.48 L375.40,221.66 L368.37,216.24 L361.03,211.25 L353.40,206.71 L345.50,202.64 L337.37,199.04 L329.03,195.93 L320.51,193.33 L311.85,191.24 L303.07,189.67 L294.21,188.64 L285.29,188.13 L276.36,188.16 L267.43,188.73 L258.55,189.83 L249.75,191.46 L241.06,193.62 L232.50,196.30 L224.11,199.49 L215.93,203.18 L207.98,207.36 L200.28,212.01 L192.88,217.11 L185.78,222.66 L179.03,228.62 L172.65,234.98 L166.65,241.72 L161.07,248.81 L155.91,256.22 L151.21,263.94 L146.98,271.93 L143.23,280.17 L139.98,288.62 L137.24,297.26 L135.02,306.05 L133.33,314.96 L132.18,323.97 L131.57,333.03 L131.51,342.12 L131.99,351.21 L133.01,360.25 L134.58,369.23 L136.68,378.10 L139.31,386.83 L142.47,395.39 L146.13,403.76 L150.30,411.89 L154.94,419.77 L160.06,427.36 L165.62,434.63 L171.61,441.57 L178.01,448.13 L184.80,454.30 L191.95,460.06 L199.44,465.38 L207.24,470.25 L215.32,474.64 L223.66,478.54 L232.22,481.94 L240.98,484.82 L249.89,487.17 L258.94,488.98 L268.09,490.25 L277.30,490.97 L286.55,491.13 L295.79,490.74 L305.00,489.80 L314.15,488.30 L323.19,486.26 L332.10,483.68 L340.84,480.56 L349.39,476.92 L357.71,472.78 L365.77,468.14 L373.54,463.02 L381.00,457.44 L388.11,451.42 L394.86,444.98 L401.21,438.15 L407.14,430.94 L412.63,423.38 L417.66,415.50 L422.22,407.33 L426.27,398.89 L429.82,390.23 L432.84,381.35 L435.33,372.31 L437.27,363.13 L438.66,353.84 L439.49,344.48 L439.76,335.08 L439.46,325.68 L438.60,316.31 L437.18,306.99 L435.20,297.78 L432.67,288.69 L429.59,279.77 L425.99,271.04 L421.86,262.54 L417.23,254.29 L412.11,246.33 L406.52,238.69 L400.48,231.39 L394.01,224.47 L387.12,217.94 L379.86,211.83 L372.23,206.17 L364.28,200.97 L356.02,196.25 L347.49,192.03 L338.72,188.33 L329.73,185.16 L320.57,182.54 L311.25,180.46 L301.83,178.95 L292.32,178.01 L282.77,177.64 L273.21,177.84 L263.67,178.61 L254.19,179.96 L244.80,181.87 L235.54,184.34 L226.44,187.37 L217.52,190.94 L208.84,195.04 L200.41,199.66 L192.26,204.78 L184.44,210.38 L176.96,216.44 L169.85,222.94 L163.14,229.87 L156.85,237.19 L151.01,244.87 L145.64,252.90 L140.75,261.24 L136.38,269.87 L132.52,278.74 L129.20,287.84 L126.44,297.13 L124.23,306.57 L122.59,316.13 L121.53,325.78 L121.05,335.48 L121.15,345.20 L121.83,354.90 L123.10,364.55 L124.94,374.11 L127.35,383.55 L130.33,392.84 L133.86,401.93 L137.94,410.80 L142.54,419.42 L147.65,427.75 L153.25,435.76 L159.33,443.43 L165.87,450.72 L172.83,457.62 L180.20,464.08 L187.95,470.10 L196.04,475.64 L204.47,480.70 L213.18,485.24 L222.16,489.25 L231.37,492.72 L240.77,495.63 L250.34,497.97 L260.04,499.74 L269.83,500.93 L279.68,501.52 L289.56,501.52 L299.42,500.93 L309.24,499.75 L318.97,497.98 L328.59,495.63 L338.05,492.71 L347.33,489.22 L356.38,485.18 L365.19,480.60 L373.70,475.49 L381.90,469.89 L389.76,463.79 L397.24,457.23 L404.32,450.24 L410.96,442.82 L417.16,435.02 L422.88,426.85 L428.10,418.35 L432.81,409.54 L436.98,400.47 L440.61,391.15 L443.67,381.63 L446.15,371.94 L448.05,362.11 L449.36,352.17 L450.07,342.17"
      fill="none"
      stroke="#0f766e"
      stroke-width="1.5"
    />
    <text x="285" y="547" font-size="17" fill="#5a6677" text-anchor="middle">Archimedean spiral · pitch 0.55 m</text>
    <rect x="588" y="174" width="352" height="59" rx="6" fill="#f7f9fb" stroke="#dce3ea" />
    <text x="610" y="210" font-size="19" fill="#122034">Head position from arc length</text>
    <line x1="764" y1="238" x2="764" y2="259" stroke="#0f766e" stroke-width="2" marker-end="url(#arrow)" />
    <rect x="588" y="266" width="352" height="59" rx="6" fill="#f7f9fb" stroke="#dce3ea" />
    <text x="610" y="302" font-size="19" fill="#122034">Propagate handle positions</text>
    <line x1="764" y1="330" x2="764" y2="351" stroke="#0f766e" stroke-width="2" marker-end="url(#arrow)" />
    <rect x="588" y="358" width="352" height="59" rx="6" fill="#f7f9fb" stroke="#dce3ea" />
    <text x="610" y="394" font-size="19" fill="#122034">Check geometric collisions</text>
    <line x1="764" y1="422" x2="764" y2="443" stroke="#0f766e" stroke-width="2" marker-end="url(#arrow)" />
    <rect x="588" y="450" width="352" height="59" rx="6" fill="#f7f9fb" stroke="#dce3ea" />
    <text x="610" y="486" font-size="19" fill="#122034">Evaluate turning and speed</text>
  </g>
</svg>
